<?xml version="1.0" standalone="no"?><!DOCTYPE svg PUBLIC "-//W3C//DTD SVG 1.1//EN" "http://www.w3.org/Graphics/SVG/1.1/DTD/svg11.dtd"><svg t="1660992220276" class="icon" viewBox="0 0 1024 1024" version="1.1" xmlns="http://www.w3.org/2000/svg" p-id="28756" xmlns:xlink="http://www.w3.org/1999/xlink" width="128" height="128"><defs><style type="text/css">@font-face { font-family: feedback-iconfont; src: url("//at.alicdn.com/t/font_1031158_u69w8yhxdu.woff2?t=1630033759944") format("woff2"), url("//at.alicdn.com/t/font_1031158_u69w8yhxdu.woff?t=1630033759944") format("woff"), url("//at.alicdn.com/t/font_1031158_u69w8yhxdu.ttf?t=1630033759944") format("truetype"); }
</style></defs><path d="M511.994264 511.994264m-511.994264 0a511.994264 511.994264 0 1 0 1023.988529 0 511.994264 511.994264 0 1 0-1023.988529 0Z" fill="#28176D" p-id="28757"></path><path d="M284.279387 329.831539v364.348393a166.424233 166.424233 0 0 0 45.070362 114.344965v-593.061265a166.424233 166.424233 0 0 0-45.070362 114.367907zM483.224484 523.052505h-19.191325v336.496309h108.67819a167.479584 167.479584 0 0 0 63.091624-12.274188V523.052505zM635.860329 438.89975h103.848813v73.105986h-103.848813z" fill="#7B49B6" p-id="28758"></path><path d="M635.883272 512.005736v336.886329a166.401291 166.401291 0 0 0 103.676745-148.884761c0.068827-1.950105 0.149126-3.900209 0.149125-5.873257V512.005736z" fill="#FC3A64" p-id="28759"></path><path d="M739.560017 323.958282a166.401291 166.401291 0 0 0-125.299966-155.951023 168.752887 168.752887 0 0 0-41.537231-5.162042H451.024813V405.736498h45.793048v-106.257766c0-9.108136 6.068267-15.176403 15.176403-15.176403s15.176403 6.068267 15.176404 15.176403v106.269238h106.269237a18.514524 18.514524 0 0 1 2.408953 0.206481v32.95677h103.848813v-109.079682c0.011471-1.961576-0.068827-3.911681-0.137654-5.873257z" fill="#FFFFFF" p-id="28760"></path><path d="M483.224484 435.894295h-32.199671v0.206481h-60.476189c-9.108136 0-15.176403-6.068267-15.176404-15.176403s6.068267-15.176403 15.176404-15.176403h60.476189V162.845217a166.653657 166.653657 0 0 0-121.663593 52.641357v593.061266a166.688071 166.688071 0 0 0 121.91596 52.641356h12.76745V523.029563h171.838642v-87.181153z" fill="#F8C642" p-id="28761"></path></svg>