<?xml version="1.0" standalone="no"?><!DOCTYPE svg PUBLIC "-//W3C//DTD SVG 1.1//EN" "http://www.w3.org/Graphics/SVG/1.1/DTD/svg11.dtd"><svg t="1646140443493" class="icon" viewBox="0 0 1024 1024" version="1.1" xmlns="http://www.w3.org/2000/svg" p-id="14941" xmlns:xlink="http://www.w3.org/1999/xlink" width="128" height="128"><defs><style type="text/css"></style></defs><path d="M0 0m245.76 0l532.48 0q245.76 0 245.76 245.76l0 532.48q0 245.76-245.76 245.76l-532.48 0q-245.76 0-245.76-245.76l0-532.48q0-245.76 245.76-245.76Z" fill="#2975FF" p-id="14942"></path><path d="M601.22112 795.57632l192.256-132.90496a7.2704 7.2704 0 0 0 3.19488-6.05184 7.2704 7.2704 0 0 0-3.19488-6.02112L601.22112 517.62176a6.61504 6.61504 0 0 0-7.29088-0.14336 7.168 7.168 0 0 0-3.26656 6.76864v94.44352H428.032s-87.68512 2.22208-109.824-64.79872a173.71136 173.71136 0 0 0 69.69344 123.04384 97.45408 97.45408 0 0 0 57.0368 17.5616h144.66048v94.48448a8.1408 8.1408 0 0 0 4.02432 6.7072 7.4752 7.4752 0 0 0 7.60832-0.11264zM420.6592 226.53952l-192.18432 132.9152a7.33184 7.33184 0 0 0 0 12.11392L420.6592 504.4224c2.22208 1.50528 5.0176 1.57696 7.29088 0.17408a7.168 7.168 0 0 0 3.29728-6.76864v-94.44352h162.65216s87.64416-2.1504 109.824 64.83968a173.71136 173.71136 0 0 0-69.70368-123.05408 97.45408 97.45408 0 0 0-57.05728-17.5616h-145.6128v-94.5152a7.168 7.168 0 0 0-3.29728-6.8096 6.61504 6.61504 0 0 0-7.35232 0.21504l-0.04096 0.04096z" fill="#FFFFFF" p-id="14943"></path></svg>