<?xml version="1.0" standalone="no"?><!DOCTYPE svg PUBLIC "-//W3C//DTD SVG 1.1//EN" "http://www.w3.org/Graphics/SVG/1.1/DTD/svg11.dtd"><svg t="1661950408771" class="icon" viewBox="0 0 1024 1024" version="1.1" xmlns="http://www.w3.org/2000/svg" p-id="62580" xmlns:xlink="http://www.w3.org/1999/xlink" width="128" height="128"><defs><style type="text/css">@font-face { font-family: feedback-iconfont; src: url("//at.alicdn.com/t/font_1031158_u69w8yhxdu.woff2?t=1630033759944") format("woff2"), url("//at.alicdn.com/t/font_1031158_u69w8yhxdu.woff?t=1630033759944") format("woff"), url("//at.alicdn.com/t/font_1031158_u69w8yhxdu.ttf?t=1630033759944") format("truetype"); }
</style></defs><path d="M512 0C229.888 0 0 229.888 0 512s229.888 512 512 512 512-229.888 512-512S794.112 0 512 0z m370.688 512c0 76.8-23.552 147.968-63.488 207.36L304.64 204.8C364.032 164.864 435.2 141.312 512 141.312c204.288 0 370.688 166.4 370.688 370.688z m-741.376 0c0-76.8 23.552-147.968 63.488-207.36L719.36 819.2c-59.392 39.936-130.56 63.488-207.36 63.488-204.288 0-370.688-166.4-370.688-370.688z" p-id="62581"></path></svg>