<?xml version="1.0" standalone="no"?><!DOCTYPE svg PUBLIC "-//W3C//DTD SVG 1.1//EN" "http://www.w3.org/Graphics/SVG/1.1/DTD/svg11.dtd"><svg t="1646139759907" class="icon" viewBox="0 0 1024 1024" version="1.1" xmlns="http://www.w3.org/2000/svg" p-id="30171" xmlns:xlink="http://www.w3.org/1999/xlink" width="128" height="128"><defs><style type="text/css"></style></defs><path d="M538.7 0.5h66v107.2c124.4 0.7 248.9-1.3 373.2 0 12.5-1.5 25 3 33.8 12 8.8 9 12.9 21.6 11.2 34.1 2 222.4 0 444.9 1.2 667.4-1.2 24.1 2.3 50.7-11.2 72.2-17 12-39 11-59 12-116.3-0.6-232.6 0-349.2 0v118.5h-72.2C355 991.3 177.4 961.1 0 929.1V96C179.6 64.2 359.1 31.8 538.7 0.5z m0 0" fill="#217346" p-id="30172"></path><path d="M604.3 142h383.6v725.6H604.3V142z m0 0" fill="#FFFFFF" p-id="30173"></path><path d="M596.9 256.2H682.2v85.3h-85.3v-85.3z m127.9 0h127.9v85.3H724.8v-85.3zM596.9 384.1H682.2v85.3h-85.3v-85.3z m127.9 0h127.9v85.3H724.8v-85.3z m-127.9 128H682.2v85.3h-85.3v-85.3z m127.9 0h127.9v85.3H724.8v-85.3zM596.9 640H682.2v85.3h-85.3V640z m127.9 0h127.9v85.3H724.8V640z m0 0" fill="#217346" p-id="30174"></path><path d="M362.3 725.3l98.1 6-113.4-214.5 110.4-213.2-92.5 5.5-56.3 126.6c-3 5.6-5.2 11.7-6.4 17.9 0 6-3 11.9-4.7 17.9h0.9c-1.1-5.9-2.7-11.8-4.7-17.5a156 156 0 0 0-6-16.6l-50.3-119-89.5 4.7 95.5 195.3-104 194.9 87.4 4.7 58-127.9 2.1-5.5 2.6-8.5c0.1-2.8 0.1-5.7 0-8.5 0.3-1.8 0.3-3.7 0-5.5 0 3 1.9 14.2 2.1 17.1 0.7 3.6 2 7.1 3.8 10.2l66.9 135.9z" fill="#FFFFFF" p-id="30175"></path></svg>