<?xml version="1.0" standalone="no"?><!DOCTYPE svg PUBLIC "-//W3C//DTD SVG 1.1//EN" "http://www.w3.org/Graphics/SVG/1.1/DTD/svg11.dtd"><svg t="1646138509255" class="icon" viewBox="0 0 1024 1024" version="1.1" xmlns="http://www.w3.org/2000/svg" p-id="17299" xmlns:xlink="http://www.w3.org/1999/xlink" width="128" height="128"><defs><style type="text/css"></style></defs><path d="M660.992 785.408l347.648-188.928-2.56 118.272-346.112 205.312z" fill="#D39E33" p-id="17300"></path><path d="M14.848 698.88l408.064-169.472L1008.64 596.48l-347.648 188.928z" fill="#AD7B23" p-id="17301"></path><path d="M660.992 785.408l-1.024 134.656L16.896 826.368l-2.048-127.488z" fill="#FFCA28" p-id="17302"></path><path d="M663.04 586.752l349.696-164.864-2.56 119.296-348.16 181.76z" fill="#D39E33" p-id="17303"></path><path d="M12.288 510.976l410.624-147.968 589.824 58.88-349.696 164.864z" fill="#AD7B23" p-id="17304"></path><path d="M663.04 586.752l-1.024 136.192L14.336 640l-2.048-129.024z" fill="#FFCA28" p-id="17305"></path><path d="M664.576 385.536l351.744-140.8-2.56 121.344-350.208 157.696z" fill="#D39E33" p-id="17306"></path><path d="M9.216 320l413.696-125.952 593.408 50.688-351.744 140.8z" fill="#AD7B23" p-id="17307"></path><path d="M664.576 385.536l-1.024 138.24L11.264 451.072l-2.048-131.072z" fill="#FFCA28" p-id="17308"></path><path d="M666.624 180.736l353.28-115.712-2.56 122.88-352.256 133.12z" fill="#D39E33" p-id="17309"></path><path d="M6.656 126.464L422.912 23.552l596.992 41.472-353.28 115.712z" fill="#FFE59C" p-id="17310"></path><path d="M666.624 180.736l-1.536 140.288L8.192 259.072l-1.536-132.608z" fill="#FFCA28" p-id="17311"></path><path d="M861.184 553.472l-86.016-26.112 25.088-131.584 86.016 26.112z" fill="#B9C5C9" p-id="17312"></path><path d="M886.272 421.888l-86.016-26.112 24.064 3.584 86.016 26.112zM684.544 988.16l-86.016-26.112 59.392-310.784 86.016 26.112z" fill="#CFD8DC" p-id="17313"></path><path d="M779.776 541.696l-86.016-26.112 81.408 11.776 86.016 26.112z" fill="#B9C5C9" p-id="17314"></path><path d="M780.8 407.04l-86.016-26.112 24.064 3.584 86.016 26.112z" fill="#CFD8DC" p-id="17315"></path><path d="M690.176 531.968L604.16 505.856l90.624-124.928 86.016 26.112z" fill="#E1E7EA" p-id="17316"></path><path d="M729.6 675.328l-86.016-26.112-39.424-143.36 86.016 26.112z" fill="#B9C5C9" p-id="17317"></path><path d="M910.336 425.472l39.424 143.36-90.624 124.928-14.848-2.048-59.392 310.784-100.352-14.336 59.392-310.784-14.336-2.048-39.424-143.36 90.624-124.928 24.064 3.584-25.088 131.072 81.408 11.776 25.088-131.584z" fill="#546E7A" p-id="17318"></path></svg>