<?xml version="1.0" standalone="no"?><!DOCTYPE svg PUBLIC "-//W3C//DTD SVG 1.1//EN" "http://www.w3.org/Graphics/SVG/1.1/DTD/svg11.dtd"><svg t="1646140699479" class="icon" viewBox="0 0 1024 1024" version="1.1" xmlns="http://www.w3.org/2000/svg" p-id="26495" xmlns:xlink="http://www.w3.org/1999/xlink" width="128" height="128"><defs><style type="text/css"></style></defs><path d="M268.8512 947.6608c-50.6368 0-91.6992-41.0624-91.6992-91.6992v-158.976c0-5.3248 4.352-9.6768 9.6768-9.6768h164.0448c5.3248 0 9.6768 4.352 9.6768 9.6768v158.976c0.0512 50.6368-41.0112 91.6992-91.6992 91.6992z" fill="#FFB82B" p-id="26496"></path><path d="M268.8512 911.2064c-36.4544 0-65.9968-29.5424-65.9968-65.9968v-172.4928c0-6.3488 5.12-11.4688 11.4688-11.4688h109.056c6.3488 0 11.4688 5.12 11.4688 11.4688v172.4928c0 36.4544-29.5424 65.9968-65.9968 65.9968z" fill="#FFD029" p-id="26497"></path><path d="M268.8512 883.3536a41.1648 41.1648 0 0 1-41.1648-41.1648v-112.6912c0-2.4064 1.9456-4.352 4.352-4.352H305.664c2.4064 0 4.352 1.9456 4.352 4.352v112.6912c0 22.7328-18.432 41.1648-41.1648 41.1648z" fill="#FEDB44" p-id="26498"></path><path d="M784.9984 467.9168m-175.36 0a175.36 175.36 0 1 0 350.72 0 175.36 175.36 0 1 0-350.72 0Z" fill="#EC4E1F" p-id="26499"></path><path d="M784.9984 467.9168m-130.4576 0a130.4576 130.4576 0 1 0 260.9152 0 130.4576 130.4576 0 1 0-260.9152 0Z" fill="#F67D00" p-id="26500"></path><path d="M784.9984 467.9168m-130.4576 0a130.4576 130.4576 0 1 0 260.9152 0 130.4576 130.4576 0 1 0-260.9152 0Z" fill="#F67D00" p-id="26501"></path><path d="M784.9984 467.9168m-92.3648 0a92.3648 92.3648 0 1 0 184.7296 0 92.3648 92.3648 0 1 0-184.7296 0Z" fill="#F59633" p-id="26502"></path><path d="M703.5392 82.944L359.7824 234.5472H189.2352c-61.3376 0-111.104 49.7152-111.104 111.104v244.48c0 61.3376 49.7152 111.104 111.104 111.104h195.84l317.952 143.4624c48.5888 21.9136 103.5776-13.6192 103.5776-66.9184V150.1184c0-53.0432-54.528-88.576-103.0656-67.1744z" fill="#FFB82B" p-id="26503"></path><path d="M665.9584 137.6256L371.6608 264.2944H225.6896c-52.5312 0-95.1296 41.5232-95.1296 92.7744v204.2368c0 51.2512 42.5984 92.7744 95.1296 92.7744h167.6288l272.1792 119.808c41.5744 18.3296 88.6784-11.3664 88.6784-55.9104V193.7408c0-44.288-46.6944-73.984-88.2176-56.1152z" fill="#FFD029" p-id="26504"></path><path d="M622.848 198.912l-237.5168 99.84H267.4688c-42.3936 0-76.7488 32.768-76.7488 73.1648v161.024c0 40.3968 34.3552 73.1648 76.7488 73.1648h135.3216l219.648 94.464c33.5872 14.4384 71.5776-8.96 71.5776-44.0832V243.1488c0-34.9184-37.6832-58.3168-71.168-44.2368z" fill="#FEDB44" p-id="26505"></path><path d="M584.9088 251.4432L397.312 325.0176H304.2304c-33.4848 0-60.6208 24.1152-60.6208 53.8624v118.5792c0 29.7472 27.136 53.8624 60.6208 53.8624h106.8544l173.4656 69.5808c26.5216 10.6496 56.5248-6.6048 56.5248-32.4608V284.0576c0.0512-25.7536-29.696-42.9568-56.1664-32.6144z" fill="#FFE36E" p-id="26506"></path><path d="M405.504 426.9056H328.5504a33.28 33.28 0 1 1 0-66.56h71.8848L502.272 328.704a33.3312 33.3312 0 0 1 41.6768 21.9136c5.4784 17.5616-4.352 36.1984-21.9136 41.6768L415.3856 425.472c-3.1744 0.9216-6.5024 1.4336-9.8816 1.4336z" fill="#FFF0CF" p-id="26507"></path></svg>