<?xml version="1.0" standalone="no"?><!DOCTYPE svg PUBLIC "-//W3C//DTD SVG 1.1//EN" "http://www.w3.org/Graphics/SVG/1.1/DTD/svg11.dtd"><svg t="1647168199641" class="icon" viewBox="0 0 1031 1024" version="1.1" xmlns="http://www.w3.org/2000/svg" p-id="4365" xmlns:xlink="http://www.w3.org/1999/xlink" width="128.875" height="128"><defs><style type="text/css"></style></defs><path d="M872.950758 793.735548s0.515081 0 0.515081 0.51508c10.30038 0 18.025357 8.755138 18.025357 19.055519v48.41265c-0.515081 10.301613-8.755138 18.54167-19.055519 18.54167H162.208501a18.464039 18.464039 0 0 1-18.541671-18.54167V205.055076c0-10.30038 8.756371-18.540438 19.056751-18.540438h48.41265c10.301613 0 18.54167 8.240058 18.54167 18.540438v588.680472h643.271625zM729.771899 936.913174h1.030161c10.30038 0 18.025357 8.756371 18.025358 19.056751v48.927731c-0.515081 10.301613-8.755138 18.540438-19.055519 18.540438H19.54349A18.464039 18.464039 0 0 1 1.004284 1004.897656V348.233935c0-10.301613 8.755138-18.54167 19.055519-18.54167h48.412649c10.301613 0 18.54167 8.24129 18.541671 18.54167v588.679239h642.757776zM1012.524053 0.073935c10.30038 0 18.540438 8.240058 18.540438 18.540438v707.136693c0 10.301613-8.755138 18.54167-18.540438 18.54167H305.38736c-10.301613 0-18.54167-8.756371-18.54167-18.54167V18.614373c0-10.301613 8.240058-18.540438 18.54167-18.540438h707.136693zM574.232337 504.288578l16.481348 16.480115c7.726209 7.726209 19.570599 7.726209 27.296808 0l16.480116-16.480115 238.97523-238.458917a18.205266 18.205266 0 0 0 0.51508-26.266648l-0.51508-0.51508-33.992857-33.992857c-7.726209-7.209897-19.570599-7.209897-26.781728 0L604.619629 413.127933l-73.649136-73.649136c-7.211129-7.211129-19.056751-7.726209-26.266647-0.515081l-0.515081 0.515081-33.991624 33.991624c-7.211129 7.726209-7.211129 19.570599 0 26.781728l104.035196 104.036429z" p-id="4366"></path></svg>