<?xml version="1.0" standalone="no"?><!DOCTYPE svg PUBLIC "-//W3C//DTD SVG 1.1//EN" "http://www.w3.org/Graphics/SVG/1.1/DTD/svg11.dtd"><svg t="1651453221868" class="icon" viewBox="0 0 1024 1024" version="1.1" xmlns="http://www.w3.org/2000/svg" p-id="7415" xmlns:xlink="http://www.w3.org/1999/xlink" width="128" height="128"><defs><style type="text/css">@font-face { font-family: feedback-iconfont; src: url("//at.alicdn.com/t/font_1031158_u69w8yhxdu.woff2?t=1630033759944") format("woff2"), url("//at.alicdn.com/t/font_1031158_u69w8yhxdu.woff?t=1630033759944") format("woff"), url("//at.alicdn.com/t/font_1031158_u69w8yhxdu.ttf?t=1630033759944") format("truetype"); }
</style></defs><path d="M512 0C229.215086 0 0 229.231543 0 512c0 282.784914 229.215086 512 512 512s512-229.215086 512-512C1024 229.231543 794.786743 0 512 0zM512 950.857143C269.999543 950.857143 73.142857 754.000457 73.142857 512 73.142857 270.017829 269.999543 73.142857 512 73.142857s438.857143 196.874971 438.857143 438.857143C950.857143 754.000457 754.000457 950.857143 512 950.857143z" p-id="7416"></path><path d="M585.142857 402.285714 475.428571 402.285714 438.857143 402.285714 402.285714 402.285714 402.285714 438.857143 438.857143 438.857143 438.857143 768 402.285714 768 402.285714 804.571429 621.714286 804.571429 621.714286 768 585.142857 768Z" p-id="7417"></path><path d="M512 274.285714m-73.142857 0a40 40 0 1 0 146.285714 0 40 40 0 1 0-146.285714 0Z" p-id="7418"></path></svg>