<?xml version="1.0" standalone="no"?><!DOCTYPE svg PUBLIC "-//W3C//DTD SVG 1.1//EN" "http://www.w3.org/Graphics/SVG/1.1/DTD/svg11.dtd"><svg t="1726665251157" class="icon" viewBox="0 0 1024 1024" version="1.1" xmlns="http://www.w3.org/2000/svg" p-id="7236" width="256" height="256" xmlns:xlink="http://www.w3.org/1999/xlink"><path d="M 934.7 391.3 V 353 c 0 -35.4 -17.6 -52.9 -52.9 -52.9 H 102.5 c -35.3 0 -52.9 17.5 -52.9 52.9 v 38.2 h 885.1 Z M 675.7 246.1 v -30.8 c -0.5 -35.3 -19.8 -52.8 -58.3 -52.8 H 380.1 c -38.4 0 -58.1 17.5 -58.6 52.8 v 30.8 h 52.2 c 6.9 -46 22.4 -70.5 46.9 -73.5 h 154.5 c 49 0 73.5 24.2 73.5 73 v 0.5 h 27.1 Z" fill="#f4c959" p-id="7237"></path><path d="M 874.1 895.8 c 35.3 0 52.9 -17.5 52.9 -52.9 v -350 H 41.9 v 350 c 0 35.4 17.6 52.9 52.9 52.9 h 779.3 Z" fill="#c2bbb4" p-id="7238"></path><path d="M 28.2 333.4 v 58.8 c 0 5.7 2 10.6 6.2 14.8 c 3.8 3.8 8.7 5.8 14.5 5.8 h 926.2 c 5.8 0 10.6 -2 14.8 -5.8 c 3.8 -4.2 5.9 -9.1 5.9 -14.8 v -58.8 c 0 -62.7 -31.4 -94.2 -94.2 -94.2 H 730.4 v -30.6 c 0.5 -62.7 -32.8 -94.2 -99.6 -94.2 H 393.5 c -67.1 0 -100.3 31.5 -99.8 94.2 v 30.6 H 122.4 c -62.7 -0.1 -94.2 31.4 -94.2 94.2 Z m 41.3 38.1 v -38.2 c 0 -35.3 17.5 -52.8 52.9 -52.8 h 779.2 c 35.4 0 53 17.5 53 52.8 v 38.2 H 69.5 Z m 519 -164.6 c 21.4 0 32.2 10.6 32.2 31.7 v 0.5 H 402.5 v -0.5 c 0 -21.1 10.6 -31.7 31.5 -31.7 h 154.5 Z m -253.6 32.2 v -30.6 c 0.6 -35.4 20.1 -52.9 58.6 -52.9 h 237.3 c 38.4 0 57.8 17.5 58.3 52.9 v 30.6 H 662 v -0.5 c 0 -48.7 -24.5 -73 -73.5 -73 H 434 c -48.5 0 -72.8 24.3 -72.8 73 v 0.5 h -26.3 Z M 48.9 424.1 c -5.8 0 -10.7 2.1 -14.5 6.2 c -4.2 3.8 -6.2 8.8 -6.2 14.4 v 370.7 c 0 62.7 31.5 94.2 94.2 94.2 h 779.2 c 62.8 0 94.2 -31.5 94.2 -94.2 V 444.8 c 0 -5.6 -2.1 -10.6 -5.9 -14.4 c -4.2 -4.1 -9 -6.2 -14.8 -6.2 H 48.9 Z m 20.6 41.4 h 885.1 v 350 c 0 35.4 -17.6 52.9 -53 52.9 H 122.4 c -35.4 0 -52.9 -17.5 -52.9 -52.9 v -350 Z" fill="#543b2a" p-id="7239"></path></svg>