<?xml version="1.0" standalone="no"?><!DOCTYPE svg PUBLIC "-//W3C//DTD SVG 1.1//EN" "http://www.w3.org/Graphics/SVG/1.1/DTD/svg11.dtd"><svg t="1664941022988" class="icon" viewBox="0 0 1024 1024" version="1.1" xmlns="http://www.w3.org/2000/svg" p-id="47948" xmlns:xlink="http://www.w3.org/1999/xlink" width="128" height="128"><path d="M882.55488 913.75616c19.43552 0 37.92896-9.0624 48.54784-25.33376C983.3472 808.40704 1013.76 712.54016 1013.76 609.49504 1013.76 329.43104 789.11488 102.4 512 102.4S10.24 329.43104 10.24 609.49504C10.24 712.54016 40.6528 808.40704 92.89728 888.4224c10.61888 16.27136 29.11232 25.33376 48.5376 25.33376h741.12z" fill="#36CFC9" p-id="47949"></path><path d="M506.71616 315.91424c23.3472 0 42.26048 19.11808 42.26048 42.7008v227.8912l-22.43584 108.7488a41.86112 41.86112 0 0 1-41.59488-1.1264 42.8032 42.8032 0 0 1-20.48-36.58752V358.6048c0-23.58272 18.91328-42.7008 42.25024-42.7008z" fill="#08979C" p-id="47950"></path><path d="M368.64 696.64768a133.44768 132.0448 90 1 0 264.0896 0 133.44768 132.0448 90 1 0-264.0896 0Z" fill="#08979C" p-id="47951"></path><path d="M501.76 696.32m-71.68 0a71.68 71.68 0 1 0 143.36 0 71.68 71.68 0 1 0-143.36 0Z" fill="#B5F5EC" p-id="47952"></path><path d="M548.9664 103.75168a503.31648 503.31648 0 0 0-84.50048 0.89088v83.15904c0 23.59296 18.91328 42.7008 42.25024 42.7008 23.3472 0 42.26048-19.10784 42.26048-42.7008v-84.04992zM169.984 238.46912a504.75008 504.75008 0 0 1 67.14368-53.26848l31.92832 55.87968c11.6736 20.4288 4.74112 46.5408-15.4624 58.33728a42.01472 42.01472 0 0 1-57.72288-15.63648l-25.88672-45.312zM32.3072 460.31872a506.91072 506.91072 0 0 1 31.95904-79.9744l65.30048 38.11328c20.21376 11.78624 27.136 37.90848 15.4624 58.32704a42.01472 42.01472 0 0 1-57.71264 15.63648l-55.00928-32.1024z m921.94816-90.5728a506.9824 506.9824 0 0 1 33.75104 78.92992l-74.97728 43.74528a42.01472 42.01472 0 0 1-57.72288-15.63648c-11.6736-20.41856-4.74112-46.5408 15.4624-58.32704l83.48672-48.71168z m-178.95424-192a503.9104 503.9104 0 0 1 68.33152 51.2l-31.3344 54.8352a42.01472 42.01472 0 0 1-57.72288 15.63648c-20.20352-11.79648-27.136-37.90848-15.4624-58.33728l36.18816-63.3344z" fill="#B5F5EC" p-id="47953"></path></svg>