<?xml version="1.0" standalone="no"?><!DOCTYPE svg PUBLIC "-//W3C//DTD SVG 1.1//EN" "http://www.w3.org/Graphics/SVG/1.1/DTD/svg11.dtd"><svg t="1660912303671" class="icon" viewBox="0 0 1024 1024" version="1.1" xmlns="http://www.w3.org/2000/svg" p-id="22330" xmlns:xlink="http://www.w3.org/1999/xlink" width="128" height="128"><defs><style type="text/css">@font-face { font-family: feedback-iconfont; src: url("//at.alicdn.com/t/font_1031158_u69w8yhxdu.woff2?t=1630033759944") format("woff2"), url("//at.alicdn.com/t/font_1031158_u69w8yhxdu.woff?t=1630033759944") format("woff"), url("//at.alicdn.com/t/font_1031158_u69w8yhxdu.ttf?t=1630033759944") format("truetype"); }
</style></defs><path d="M794.46030183 184.82590522c-32.17211931-32.17211931-76.34062211-51.80256501-124.87144618-51.802565h-123.78086585v-19.63044569c0-38.71560122-21.26631616-74.70475164-55.07430596-93.78990717l-32.17211931-17.99457521c-16.35870474-9.26993269-37.07973073-3.27174094-46.34966345 13.0869638s-3.27174094 37.07973073 13.08696379 46.34966343l32.17211934 17.9945752c12.54167363 7.08877205 20.17573584 20.17573584 20.17573584 34.35327995v19.63044569H354.41114435c-46.89495358 0-88.88229574 17.99457522-120.50912491 47.44024374-34.35327995 32.17211931-56.16488628 77.97649259-56.16488627 128.68847728v324.99293414c0 97.06164811 43.07792249 184.30807339 111.23919222 243.19941046 56.16488628 48.53082406 129.77905758 77.97649259 209.93671082 77.97649259h25.62863742c99.78809892 0 189.21568481-45.80437327 248.10702187-117.23738397 45.80437327-55.61959612 73.06888117-126.50731665 73.06888118-203.93851908V309.6973514c0.54529015-49.07611421-19.08515553-93.24461701-51.25727485-124.87144618z m-241.56353999 257.92224472c0 22.35689648-17.99457522 40.89676184-40.89676184 40.89676186s-40.89676184-17.99457522-40.89676184-40.89676186V315.15025297c0-22.35689648 17.99457522-40.89676184 40.89676184-40.89676184s40.89676184 17.99457522 40.89676184 40.89676184v127.59789697z" fill="#000000" p-id="22331"></path></svg>