<?xml version="1.0" standalone="no"?><!DOCTYPE svg PUBLIC "-//W3C//DTD SVG 1.1//EN" "http://www.w3.org/Graphics/SVG/1.1/DTD/svg11.dtd"><svg t="1718205355405" class="icon" viewBox="0 0 1024 1024" version="1.1" xmlns="http://www.w3.org/2000/svg" p-id="12447" xmlns:xlink="http://www.w3.org/1999/xlink" width="128" height="128"><path d="M448.8 135.52l-257.6 560.96h257.6V135.552z m31.2 0v560.96c0 21.824-13.984 39.52-31.2 39.52h-257.6C173.984 736 160 718.304 160 696.512c0-6.976 1.472-13.824 4.224-19.84l257.6-561.024c8.64-18.88 27.744-25.28 42.656-14.304 9.6 7.072 15.52 20.096 15.52 34.176z m96 15.68v529.6c0 9.408 4.128 15.2 7.168 15.2h241.664c3.04 0 7.168-5.792 7.168-15.2a24.576 24.576 0 0 0-2.016-10.016l-241.664-529.6c-2.464-5.408-5.12-6.24-7.552-4.032-2.688 2.464-4.768 7.808-4.768 14.048zM814.528 832l-30.336-30.336a13.44 13.44 0 0 1 18.976-18.976l56.896 56.896a13.44 13.44 0 0 1 0 18.976L803.2 915.52a13.44 13.44 0 1 1-18.976-18.976L816.704 864H208.32l35.52 35.52a14.144 14.144 0 1 1-20 20L163.872 859.52a14.144 14.144 0 0 1 0-20l60-60a14.144 14.144 0 1 1 20 20L211.424 832h603.104zM544 151.2c0-18.784 6.784-36.256 17.984-46.4 18.208-16.512 42.432-9.088 54.144 16.544l241.664 529.6c4.064 8.928 6.208 19.264 6.208 29.856 0 30.496-17.536 55.2-39.168 55.2h-241.664C561.536 736 544 711.296 544 680.8V151.2z" fill="#979797" p-id="12448"></path></svg>