<?xml version="1.0" standalone="no"?><!DOCTYPE svg PUBLIC "-//W3C//DTD SVG 1.1//EN" "http://www.w3.org/Graphics/SVG/1.1/DTD/svg11.dtd"><svg t="1718205061062" class="icon" viewBox="0 0 1024 1024" version="1.1" xmlns="http://www.w3.org/2000/svg" p-id="7009" xmlns:xlink="http://www.w3.org/1999/xlink" width="128" height="128"><path d="M0 492.352l1024 0 0 39.232-1024 0 0-39.232Z" p-id="7010"></path><path d="M713.216 616.96 310.72 616.96 310.592 616.96 310.144 616.96 288.064 616.576 282.176 626.816l-5.568 9.6L500.416 1024 512 1024l11.648 0 212.288-367.744 0.064-0.064 0.128-0.192 11.328-19.584L741.696 626.56l-5.568-9.664L713.856 616.96l-0.448 0L713.216 616.96zM690.56 656.256 512 965.632l-178.624-309.376L690.56 656.256z" p-id="7011"></path><path d="M288.064 367.744 288.064 367.808 287.936 368 276.608 387.584 282.304 397.44l5.568 9.664L310.144 407.04l0.448 0 0.128 0 402.496 0 0.128 0 0.448 0 22.08 0.384 5.888-10.176 5.568-9.6L523.584 0 512 0 500.416 0 288.064 367.744zM690.624 367.744 333.44 367.744 512 58.368 690.624 367.744z" p-id="7012"></path></svg>