<?xml version="1.0" standalone="no"?><!DOCTYPE svg PUBLIC "-//W3C//DTD SVG 1.1//EN" "http://www.w3.org/Graphics/SVG/1.1/DTD/svg11.dtd"><svg t="1726667453989" class="icon" viewBox="0 0 1024 1024" version="1.1" xmlns="http://www.w3.org/2000/svg" p-id="12628" xmlns:xlink="http://www.w3.org/1999/xlink" width="256" height="256"><path d="M840.843 910.57l-215.124 2.934L412.159 1024l-1.565-107.562a107.562 107.562 0 0 1-108.93-105.998l-3.716-268.905a107.562 107.562 0 0 1 105.997-108.93l430.249-5.868a107.562 107.562 0 0 1 108.93 105.998l3.912 269.1a107.367 107.367 0 0 1-105.998 108.931zM459.877 593.166a53.781 53.781 0 1 0 54.564 52.216 53.781 53.781 0 0 0-54.564-52.998z m161.344-2.151a53.781 53.781 0 1 0 54.563 52.999 53.781 53.781 0 0 0-54.563-53z m161.343-2.152a53.781 53.781 0 1 0 54.563 53 53.781 53.781 0 0 0-54.563-53zM614.767 106.79l-484.225 6.65 7.431 537.81 107.563-1.565 3.715 269.492h-53.78A107.562 107.562 0 0 1 86.538 813.374L76.956 114.22A107.562 107.562 0 0 1 182.954 5.094L559.617 0.009a107.562 107.562 0 0 1 108.93 105.998l3.717 268.905h-53.781l-3.716-268.123z" p-id="12629"></path></svg>