<?xml version="1.0" standalone="no"?><!DOCTYPE svg PUBLIC "-//W3C//DTD SVG 1.1//EN" "http://www.w3.org/Graphics/SVG/1.1/DTD/svg11.dtd"><svg t="1660912539592" class="icon" viewBox="0 0 1024 1024" version="1.1" xmlns="http://www.w3.org/2000/svg" p-id="24628" xmlns:xlink="http://www.w3.org/1999/xlink" width="128" height="128"><defs><style type="text/css">@font-face { font-family: feedback-iconfont; src: url("//at.alicdn.com/t/font_1031158_u69w8yhxdu.woff2?t=1630033759944") format("woff2"), url("//at.alicdn.com/t/font_1031158_u69w8yhxdu.woff?t=1630033759944") format("woff"), url("//at.alicdn.com/t/font_1031158_u69w8yhxdu.ttf?t=1630033759944") format("truetype"); }
</style></defs><path d="M142.944606 0m350.31579 0l0 0q350.315789 0 350.315789 350.315789l0 323.368422q0 350.315789-350.315789 350.315789l0 0q-350.315789 0-350.31579-350.315789l0-323.368422q0-350.315789 350.31579-350.315789Z" fill="#303F5B" p-id="24629"></path><path d="M466.313027 107.789474m26.947369 0l0 0q26.947368 0 26.947368 26.947368l0 350.31579q0 26.947368-26.947368 26.947368l0 0q-26.947368 0-26.947369-26.947368l0-350.31579q0-26.947368 26.947369-26.947368Z" fill="#D2DFFE" p-id="24630"></path><path d="M439.365659 188.631579m53.894737 0l0 0q53.894737 0 53.894737 53.894737l0 134.736842q0 53.894737-53.894737 53.894737l0 0q-53.894737 0-53.894737-53.894737l0-134.736842q0-53.894737 53.894737-53.894737Z" fill="#D2DFFE" p-id="24631"></path></svg>