<?xml version="1.0" standalone="no"?><!DOCTYPE svg PUBLIC "-//W3C//DTD SVG 1.1//EN" "http://www.w3.org/Graphics/SVG/1.1/DTD/svg11.dtd"><svg t="1646139871069" class="icon" viewBox="0 0 1024 1024" version="1.1" xmlns="http://www.w3.org/2000/svg" p-id="39244" xmlns:xlink="http://www.w3.org/1999/xlink" width="128" height="128"><defs><style type="text/css"></style></defs><path d="M718.1824 103.4496C582.8864 61.9008 511.8464 0 511.8464 0s-71.0144 61.9264-206.208 103.4496c-84.1984 25.856-226.7904 0-226.7904 0s-25.7792 279.2704 5.1456 512c10.0352 75.5968 58.8032 145.1264 119.936 204.6464l53.9136-53.9136 254.0032-254.0032L845.4912 178.5088 916.224 107.776c-46.0288 6.0416-137.1648 14.3616-198.0416-4.3264z" fill="#3AAEDA" p-id="39245"></path><path d="M945.152 103.4496s-11.2384 1.9968-28.928 4.3264l-70.7328 70.7328-333.6448 333.6448-254.0032 254.0032-53.9136 53.9136C330.9824 943.7696 511.8464 1024 511.8464 1024s397.2096-175.8464 428.16-408.5504 5.1456-512 5.1456-512z" fill="#26A1C6" p-id="39246"></path><path d="M612.7616 510.72zM712.2944 494.3616zM638.0544 514.048zM689.8688 505.5232zM667.1104 512.128z" fill="#FFFFFF" p-id="39247"></path><path d="M494.2592 529.7408l-21.5808 21.5808-196.6592 196.6336 0.0256 0.0256 218.2144-218.24zM549.4272 474.5728l-14.6688 14.6688 14.6688-14.6688v-0.0256l-37.7344 37.7344-17.4336 17.4592 55.168-55.168z" fill="#B77D20" p-id="39248"></path><path d="M276.0448 747.9808l147.4816-147.5072-147.4816 147.5072zM494.2592 529.7408l-16.1792 16.1792zM494.2592 529.7408l17.4336-17.4336 37.76-37.7344h-0.0256z" fill="#C48C3B" p-id="39249"></path><path d="M736.6144 475.4944a132.4288 132.4288 0 0 1-19.3536 15.8208c6.784-4.608 13.3632-9.7024 19.3792-15.744 44.4928-44.4928 50.56-112.4864 18.8928-163.7888 31.616 51.2768 25.5232 119.2704-18.9184 163.712z" fill="#FFFFFF" p-id="39250"></path><path d="M534.7584 273.664a150.784 150.784 0 0 0-17.92 21.9648c-1.1776 1.7152-2.2272 3.4816-3.3024 5.2224a153.0624 153.0624 0 0 0-10.624 20.1472c-0.6912 1.5616-1.4848 3.0976-2.0992 4.6848a151.8592 151.8592 0 0 0-7.6544 25.856c-0.256 1.2032-0.3072 2.4576-0.512 3.6608a153.9584 153.9584 0 0 0-0.1536 51.0208c0.3072 1.8688 0.4096 3.7376 0.7936 5.5808 1.4592 7.2192 3.6608 14.3104 6.1952 21.2992l-47.4624 47.4624-26.4704 26.4704-0.8704 5.248-6.4 38.0928-3.712 22.0928-74.368 13.44-14.6176 53.6576-54.8864 28.16-2.5088 67.7376 184.4992-184.4992 32.1792-32.1792-32.1792 32.1792-184.4992 184.4992-0.3328 9.0112 8.2176 3.4816 147.4816-147.4816 49.152-49.152 5.4016-5.4016 16.1792-16.1792 55.168-55.168 53.2992-53.2992a58.6752 58.6752 0 1 1 82.9696-82.9696l64.6144-64.6144a152.4224 152.4224 0 0 0-215.5776-0.0256z" fill="#E8B321" p-id="39251"></path><path d="M771.9936 301.6448a150.6816 150.6816 0 0 0-21.6832-27.9552l-64.6144 64.6144a58.7008 58.7008 0 0 1-82.9952 82.9952l-67.968 67.968-40.4992 40.4992-218.2144 218.2144 3.4816 8.192 9.0112-0.3328 67.7376-2.5088 28.16-54.8864 53.6576-14.6176 13.44-74.368 22.0928-3.712 38.0928-6.4 5.248-0.8704 26.4704-26.4704 47.5648-47.5648a153.088 153.088 0 0 0 26.88 7.1168c6.4512 1.0496 12.9792 1.6384 19.5328 1.8688 2.2016 0.0768 4.4544 0.3584 6.6816 0.3584a154.4192 154.4192 0 0 0 26.5728-2.56c1.4848-0.256 2.8928-0.768 4.352-1.0752a152.064 152.064 0 0 0 21.7344-6.4512c2.2784-0.8704 4.5312-1.8432 6.784-2.816 6.4768-2.8416 12.8256-6.1952 18.944-9.984 1.8944-1.1776 3.84-2.2272 5.6832-3.4816a151.04 151.04 0 0 0 22.1952-18.1248c50.944-50.9952 57.9328-128.896 21.6576-187.648z" fill="#C18B10" p-id="39252"></path></svg>