<?xml version="1.0" standalone="no"?><!DOCTYPE svg PUBLIC "-//W3C//DTD SVG 1.1//EN" "http://www.w3.org/Graphics/SVG/1.1/DTD/svg11.dtd"><svg t="1690823060645" class="icon" viewBox="0 0 1024 1024" version="1.1" xmlns="http://www.w3.org/2000/svg" p-id="12519" xmlns:xlink="http://www.w3.org/1999/xlink" width="128" height="128"><path d="M511.994581 959.843085c-119.620496 0-232.082945-46.584206-316.668202-131.169464-84.585257-84.587064-131.169464-197.051319-131.169464-316.673621 0-119.622303 46.584206-232.086557 131.17127-316.671815S392.374085 64.156915 511.994581 64.156915c119.627721 0 232.093782 46.584206 316.680846 131.17127 84.585257 84.585257 131.167657 197.047706 131.167658 316.671815 0 119.624109-46.5824 232.086557-131.167658 316.673621-84.587064 84.585257-197.053125 131.169464-316.680846 131.169464z m0-870.399097C278.999496 89.443988 89.443988 279.001302 89.443988 512S278.999496 934.556012 511.996388 934.556012c233.002311 0 422.561431-189.557314 422.56143-422.556012C934.556012 279.001302 744.996892 89.443988 511.994581 89.443988z m0.003613 418.112712c-72.512487 0-140.507618 17.58174-191.453845 49.504863-49.107495 30.770755-76.153825 71.063899-76.153825 113.454063 0 42.393777 27.044524 82.686921 76.153825 113.457676 50.946226 31.923123 118.939552 49.503057 191.453845 49.503057 72.514293 0 140.507618-17.579934 191.453844-49.503057 49.107495-30.770755 76.153825-71.065705 76.153825-113.457676s-27.04633-82.683308-76.153825-113.454063c-50.946226-31.923123-118.939552-49.504863-191.453844-49.504863z m0.001806-28.337777c-61.906366 0-112.272796-50.364623-112.272796-112.272796s50.364623-112.272796 112.272796-112.272795c61.906366 0 112.272796 50.364623 112.272796 112.272795s-50.36643 112.272796-112.272796 112.272796z" p-id="12520"></path></svg>