<?xml version="1.0" standalone="no"?><!DOCTYPE svg PUBLIC "-//W3C//DTD SVG 1.1//EN" "http://www.w3.org/Graphics/SVG/1.1/DTD/svg11.dtd"><svg t="1673442103745" class="icon" viewBox="0 0 1024 1024" version="1.1" xmlns="http://www.w3.org/2000/svg" p-id="11762" xmlns:xlink="http://www.w3.org/1999/xlink" width="128" height="128"><path d="M146.186667 569.493333a5.333333 5.333333 0 0 0 7.573333 0l354.453333-354.506666a5.333333 5.333333 0 0 1 7.573334 0l354.453333 354.506666a5.333333 5.333333 0 0 0 7.573333 0l45.226667-45.226666a5.333333 5.333333 0 0 0 0-7.573334L515.786667 109.386667a5.333333 5.333333 0 0 0-7.573334 0L100.96 516.693333a5.333333 5.333333 0 0 0 0 7.573334z" p-id="11763"></path><path d="M515.786667 454.506667a5.333333 5.333333 0 0 0-7.573334 0l-407.253333 407.306666a5.333333 5.333333 0 0 0 0 7.52l45.226667 45.226667a5.333333 5.333333 0 0 0 7.573333 0L508.213333 560a5.333333 5.333333 0 0 1 7.573334 0l354.453333 354.453333a5.333333 5.333333 0 0 0 7.573333 0l45.226667-45.226666a5.333333 5.333333 0 0 0 0-7.52z" p-id="11764"></path></svg>