<?xml version="1.0" standalone="no"?><!DOCTYPE svg PUBLIC "-//W3C//DTD SVG 1.1//EN" "http://www.w3.org/Graphics/SVG/1.1/DTD/svg11.dtd"><svg t="1692109676678" class="icon" viewBox="0 0 1025 1024" version="1.1" xmlns="http://www.w3.org/2000/svg" p-id="14570" xmlns:xlink="http://www.w3.org/1999/xlink" width="128.125" height="128"><path d="M1023.488 959.488c-2.048-7.68-6.144-17.92-12.8-24.576L920.576 844.8c24.576-34.816 37.888-76.8 37.888-119.296 0-62.464-23.04-119.808-65.536-162.304s-99.84-65.536-162.304-65.536-119.808 23.04-162.304 65.536-65.536 99.84-65.536 162.304 23.04 119.808 65.536 162.304 99.84 65.536 162.304 65.536c43.52 0 83.456-13.312 113.152-36.864l89.6 89.6 4.096 4.608h6.144c1.536 0 6.656 1.536 9.728 2.56 6.656 2.048 12.8 4.096 18.944 4.096 20.48 0 38.4-10.752 48.128-27.648 4.608-7.68 6.144-18.432 3.072-30.208z m-293.376-361.472c70.144 0 126.976 56.832 126.976 126.976 0 70.144-56.832 126.976-126.976 126.976s-126.976-56.832-126.976-126.976c0-70.144 56.832-126.976 126.976-126.976zM414.72 706.56c0 29.696-20.48 50.176-50.176 50.176H207.872c-29.696 0-50.176-20.48-50.176-50.176 0-29.696 20.48-50.176 50.176-50.176h156.672c29.696-0.512 50.176 20.48 50.176 50.176z" p-id="14571"></path><path d="M796.16 71.168h-128C661.504 28.672 628.224 0 583.168 0H299.008C253.44 0 220.16 28.672 214.016 71.168h-128C35.328 71.168 0 106.496 0 156.672v781.312c0 50.688 35.328 86.016 86.016 86.016h390.656c29.696 0 50.176-20.48 50.176-50.176s-20.48-50.176-50.176-50.176H100.864V172.032h113.152c6.144 42.496 39.424 71.168 84.992 71.168h284.16c45.568 0 78.848-28.672 84.992-71.168h113.152v233.472c0 29.696 20.48 50.176 50.176 50.176 29.696 0 50.176-20.48 50.176-50.176V156.672c0-50.176-35.328-85.504-85.504-85.504z m-212.992 14.848v71.168H299.008V86.016h284.16z" p-id="14572"></path><path d="M629.76 416.256c0 29.696-19.456 50.176-47.616 50.176H194.56c-28.16 0-47.616-20.48-47.616-50.176s19.456-50.176 47.616-50.176h387.072c28.16 0 48.128 20.48 48.128 50.176z" p-id="14573"></path></svg>