<?xml version="1.0" standalone="no"?><!DOCTYPE svg PUBLIC "-//W3C//DTD SVG 1.1//EN" "http://www.w3.org/Graphics/SVG/1.1/DTD/svg11.dtd"><svg t="1690810954674" class="icon" viewBox="0 0 1024 1024" version="1.1" xmlns="http://www.w3.org/2000/svg" p-id="15550" xmlns:xlink="http://www.w3.org/1999/xlink" width="128" height="128"><path d="M492 64H84c-11 0-20 9-20 20v856c0 11 9 20 20 20h408c11 0 20-9 20-20V84c0-11-9-20-20-20zM256 886c0 5.5-4.5 10-10 10H138c-5.5 0-10-4.5-10-10V394c0-5.5 4.5-10 10-10h108c5.5 0 10 4.5 10 10v492z m0-576c0 5.5-4.5 10-10 10H138c-5.5 0-10-4.5-10-10v-44c0-5.5 4.5-10 10-10h108c5.5 0 10 4.5 10 10v44z m0-128c0 5.5-4.5 10-10 10H138c-5.5 0-10-4.5-10-10v-44c0-5.5 4.5-10 10-10h108c5.5 0 10 4.5 10 10v44z m192 704c0 5.5-4.5 10-10 10H330c-5.5 0-10-4.5-10-10V394c0-5.5 4.5-10 10-10h108c5.5 0 10 4.5 10 10v492z m0-576c0 5.5-4.5 10-10 10H330c-5.5 0-10-4.5-10-10v-44c0-5.5 4.5-10 10-10h108c5.5 0 10 4.5 10 10v44z m0-128c0 5.5-4.5 10-10 10H330c-5.5 0-10-4.5-10-10v-44c0-5.5 4.5-10 10-10h108c5.5 0 10 4.5 10 10v44z" p-id="15551"></path><path d="M192 855c-34.74 0-63-28.26-63-63s28.26-63 63-63 63 28.26 63 63-28.26 63-63 63z m0-78c-8.27 0-15 6.73-15 15s6.73 15 15 15 15-6.73 15-15-6.73-15-15-15z m192 78c-34.74 0-63-28.26-63-63s28.26-63 63-63 63 28.26 63 63-28.26 63-63 63z m0-78c-8.27 0-15 6.73-15 15s6.73 15 15 15 15-6.73 15-15-6.73-15-15-15zM727.48 67.56L518.43 121.9c-10.65 2.77-17.09 13.74-14.32 24.39l207.56 798.46c2.77 10.65 13.74 17.09 24.39 14.32l209.05-54.34c10.65-2.77 17.09-13.74 14.32-24.39L751.86 81.89c-2.76-10.65-13.74-17.09-24.38-14.33zM883.9 844.19c1.38 5.32-1.84 10.81-7.16 12.19l-104.53 27.17c-5.32 1.38-10.81-1.84-12.19-7.16l-115.73-445.2c-1.38-5.32 1.84-10.81 7.16-12.19l104.53-27.17c5.32-1.38 10.81 1.84 12.19 7.16l115.73 445.2z m-136.87-526.5c1.38 5.32-1.84 10.81-7.16 12.19l-104.53 27.17c-5.32 1.38-10.81-1.84-12.19-7.16l-11.07-42.58c-1.38-5.32 1.84-10.81 7.16-12.19l104.53-27.17c5.32-1.38 10.81 1.84 12.19 7.16l11.07 42.58z m-32.2-123.88c1.38 5.32-1.84 10.81-7.16 12.19l-104.53 27.17c-5.32 1.38-10.81-1.84-12.19-7.16l-11.07-42.58c-1.38-5.32 1.84-10.81 7.16-12.19l104.53-27.17c5.32-1.38 10.81 1.84 12.19 7.16l11.07 42.58z" p-id="15552"></path><path d="M798.32 832.32c-28 0-53.62-18.83-60.98-47.16-8.74-33.62 11.5-68.08 45.12-76.82 33.62-8.74 68.08 11.5 76.82 45.12 4.23 16.29 1.87 33.25-6.65 47.76-8.52 14.51-22.19 24.83-38.47 29.07a62.7 62.7 0 0 1-15.84 2.03z m-0.02-78.01c-1.25 0-2.51 0.16-3.77 0.48-8 2.08-12.82 10.29-10.74 18.29 2.08 8.01 10.29 12.82 18.29 10.74 3.88-1.01 7.13-3.47 9.16-6.92 2.03-3.45 2.59-7.49 1.58-11.37-1.75-6.73-7.85-11.22-14.52-11.22z" p-id="15553"></path></svg>