<?xml version="1.0" standalone="no"?><!DOCTYPE svg PUBLIC "-//W3C//DTD SVG 1.1//EN" "http://www.w3.org/Graphics/SVG/1.1/DTD/svg11.dtd"><svg t="1693140870237" class="icon" viewBox="0 0 1024 1024" version="1.1" xmlns="http://www.w3.org/2000/svg" p-id="18958" xmlns:xlink="http://www.w3.org/1999/xlink" width="128" height="128"><path d="M407.31 532.07m-30.72 0a30.72 30.72 0 1 0 61.44 0 30.72 30.72 0 1 0-61.44 0Z" p-id="18959"></path><path d="M616.69 532.07m-30.72 0a30.72 30.72 0 1 0 61.44 0 30.72 30.72 0 1 0-61.44 0Z" p-id="18960"></path><path d="M475.29 747.62l21.52 12.43v24.76c0 8.39 6.8 15.19 15.19 15.19s15.19-6.8 15.19-15.19v-24.76l21.52-12.43c7.27-4.19 9.75-13.48 5.56-20.75-4.19-7.26-13.48-9.75-20.75-5.56L512 733.74l-21.52-12.43c-7.27-4.19-16.55-1.71-20.75 5.56-4.2 7.27-1.71 16.56 5.56 20.75z" p-id="18961"></path><path d="M947.49 481.33c-11.44-27.56-47.86-54.48-72.72-70.35 6.05-11.41 9.23-23.95 9.23-36.96 0-17.32-5.75-34.07-16.62-48.45-7.11-9.4-16.21-17.5-26.75-23.89 0.43-4.54 0.65-9.11 0.65-13.69 0-31.42-10.06-61.14-28.34-83.68-16.75-20.66-38.59-33.25-62.36-36.19-6.78-49.44-49.3-87.65-100.57-87.65-26.06 0-50.48 9.8-69 27.02-18.52-17.22-42.94-27.02-69-27.02-26.06 0-50.48 9.8-69 27.02-18.52-17.22-42.94-27.02-69-27.02-51.27 0-93.79 38.21-100.57 87.65-23.77 2.93-45.61 15.52-62.36 36.19-18.28 22.54-28.34 52.26-28.34 83.68 0 4.01 0.17 8.02 0.5 12.01-28.54 16.05-46.26 43.77-46.26 74.02 0 13.57 3.46 26.62 10.02 38.42-23.86 15.47-59.3 41.97-70.48 68.89a20.014 20.014 0 0 0-0.13 15.02c12.39 31.36 46.51 56.68 72.95 72.39 30.77 18.29 67.08 33.2 103.45 42.63V680c0 69.37 27.02 134.6 76.07 183.65 49.05 49.05 114.28 76.07 183.65 76.07s134.6-27.02 183.65-76.07C745.2 814.6 772.22 749.37 772.22 680v-68.89c36.03-9.44 71.96-24.25 102.45-42.37 26.44-15.71 60.56-41.03 72.95-72.39a20.014 20.014 0 0 0-0.13-15.02zM212.1 330.57c9.15-3.45 14.46-13 12.57-22.59-1.29-6.51-1.94-13.23-1.94-19.98 0-22.28 6.89-43.05 19.41-58.49 11.52-14.21 26.48-22.04 42.1-22.04 1.98 0 3.98 0.13 5.95 0.38a19.97 19.97 0 0 0 16.28-5.32c4.36-4.13 6.63-9.99 6.19-15.97-0.13-1.8-0.19-3.25-0.19-4.56 0-33.92 27.6-61.52 61.52-61.52 21.25 0 40.72 10.76 52.08 28.79 3.66 5.81 10.05 9.34 16.92 9.34s13.26-3.53 16.92-9.34c11.36-18.03 30.83-28.79 52.08-28.79s40.72 10.76 52.08 28.79c3.66 5.81 10.05 9.34 16.92 9.34s13.26-3.53 16.92-9.34c11.36-18.03 30.83-28.79 52.08-28.79 33.92 0 61.52 27.6 61.52 61.52 0 1.32-0.06 2.76-0.19 4.56a19.994 19.994 0 0 0 6.19 15.97 19.99 19.99 0 0 0 16.29 5.32c1.97-0.25 3.98-0.38 5.95-0.38 15.63 0 30.58 7.83 42.11 22.04 12.52 15.44 19.41 36.21 19.41 58.49 0 7.09-0.71 14.12-2.12 20.9-1.95 9.39 3.05 18.84 11.9 22.52 20.32 8.46 32.95 24.78 32.95 42.6 0 26.57-27.6 48.18-61.52 48.18-22.27 0-42.9-9.59-53.84-25.04a20.012 20.012 0 0 0-16.17-8.44h-0.15c-6.38 0-12.38 3.04-16.15 8.2-11.57 15.83-30.15 25.28-49.69 25.28-17.84 0-34.79-7.75-46.5-21.28a20.025 20.025 0 0 0-18.03-6.69c-6.76 0.99-12.54 5.37-15.34 11.6-9.92 22.09-31.95 36.37-56.14 36.37s-46.22-14.28-56.14-36.37c-2.8-6.23-8.58-10.6-15.34-11.6a20.01 20.01 0 0 0-18.02 6.69c-11.71 13.52-28.66 21.28-46.5 21.28-19.55 0-38.13-9.45-49.69-25.27-3.8-5.19-9.87-8.22-16.29-8.2-6.43 0.05-12.45 3.19-16.17 8.44-10.94 15.44-31.58 25.04-53.84 25.04-33.92 0-61.52-21.61-61.52-48.18 0.01-18.36 13.8-35.42 35.14-43.46z m-94.46 158.96c8.56-11.85 27.61-29.03 56.72-47.1 18.06 12.79 40.52 19.77 64.13 19.77 4.83 0 9.6-0.3 14.29-0.86v108.55c-60.3-17.58-116.72-51.01-135.14-80.36z m550.22 345.84c-41.5 41.5-96.68 64.36-155.37 64.36s-113.87-22.86-155.37-64.36-64.35-96.68-64.35-155.37V448.65c5.66-3.11 10.97-6.69 15.85-10.76 18.21 15.49 41.57 24.31 65.85 24.31 20.58 0 40.45-6.25 57.14-17.63 19.01 23.42 47.86 37.63 78.86 37.63s59.86-14.21 78.86-37.63a101.382 101.382 0 0 0 57.14 17.63c24.28 0 47.65-8.82 65.86-24.31 6.02 5.01 12.7 9.31 19.88 12.85V680c0.01 58.69-22.85 113.87-64.35 155.37zM772.22 569.6V461.76c3.39 0.29 6.81 0.45 10.26 0.45 24.22 0 47.23-7.35 65.51-20.77 23.13 14.31 47.71 33.11 58.4 48.05-18.28 29.19-74.21 62.44-134.17 80.11z" p-id="18962"></path><path d="M552.22 827.09c-12.93 4.29-26.46 6.47-40.22 6.47s-27.29-2.18-40.22-6.47c-6.29-2.1-13.08 1.32-15.17 7.6-2.09 6.29 1.32 13.08 7.61 15.17 15.37 5.11 31.45 7.7 47.78 7.7 16.34 0 32.41-2.59 47.78-7.7 6.29-2.09 9.69-8.88 7.6-15.17-2.08-6.29-8.87-9.69-15.16-7.6z" p-id="18963"></path></svg>