<?xml version="1.0" standalone="no"?><!DOCTYPE svg PUBLIC "-//W3C//DTD SVG 1.1//EN" "http://www.w3.org/Graphics/SVG/1.1/DTD/svg11.dtd"><svg t="1651453103635" class="icon" viewBox="0 0 1026 1024" version="1.1" xmlns="http://www.w3.org/2000/svg" p-id="6191" width="128.25" height="128" xmlns:xlink="http://www.w3.org/1999/xlink"><defs><style type="text/css">@font-face { font-family: feedback-iconfont; src: url("//at.alicdn.com/t/font_1031158_u69w8yhxdu.woff2?t=1630033759944") format("woff2"), url("//at.alicdn.com/t/font_1031158_u69w8yhxdu.woff?t=1630033759944") format("woff"), url("//at.alicdn.com/t/font_1031158_u69w8yhxdu.ttf?t=1630033759944") format("truetype"); }
</style></defs><path d="M577.92 1024c-1.92 0-4.48 0-6.4-0.64-19.84-3.2-35.84-19.2-37.76-39.04l-51.2-428.8L38.4 492.16c-19.84-2.56-35.2-18.56-37.76-38.4-2.56-19.84 8.32-39.04 26.88-47.36L963.84 0c16.64-7.04 36.48-3.84 49.28 9.6 12.8 12.8 16.64 32.64 9.6 49.28L618.88 997.12c-7.04 16.64-23.68 26.88-40.96 26.88zM208 426.24l320.64 46.08c19.84 2.56 35.84 19.2 38.4 39.04l35.84 297.6L896 127.36 208 426.24z" p-id="6192"></path></svg>