<?xml version="1.0" standalone="no"?><!DOCTYPE svg PUBLIC "-//W3C//DTD SVG 1.1//EN" "http://www.w3.org/Graphics/SVG/1.1/DTD/svg11.dtd"><svg t="1646833751526" class="icon" viewBox="0 0 1024 1024" version="1.1" xmlns="http://www.w3.org/2000/svg" p-id="5470" xmlns:xlink="http://www.w3.org/1999/xlink" width="128" height="128"><defs><style type="text/css"></style></defs><path d="M511.73808594 93.19941406c-140.67070313 0-264.92695313 69.1453125-341.01035156 175.08955078v-70.47597656c0-21.66767578-17.61679688-39.22998047-39.346875-39.22998047s-39.346875 17.56318359-39.346875 39.22998047v156.91992188c0 21.66240234 17.61679688 39.22998047 39.346875 39.22998047h170.50341796c21.73007813 0 39.346875-17.56669922 39.346875-39.22998047 0-21.66767578-17.61679688-39.22998047-39.346875-39.22998047h-68.4421875c61.73085937-86.98798828 163.28496094-143.84267578 278.296875-143.84267578 188.32851562 0 341.00507812 152.22128906 341.00507813 339.99345703 0 187.76865234-152.6765625 339.99345703-341.00507813 339.99345703-158.73574219 0-291.74589844-108.29179688-329.75771484-254.70439453l-0.68291016 0.21269531c-5.3015625-15.41162109-19.54248047-26.65986328-36.8024414-26.65986328-21.73007813 0-39.346875 17.56318359-39.346875 39.22558594 0 3.86630859 1.16367187 7.36875 2.20605469 10.89316406l-0.40957032 0.12919922c0.25839844 0.95009766 0.73212891 1.8 0.99580078 2.74482422 0.28916016 0.76201172 0.48164063 1.52314453 0.81650391 2.2640625 49.92539062 175.47011719 210.98935547 304.35380859 402.98378906 304.35380859 231.79394531 0 419.69970703-187.35029297 419.69970703-418.45341797-0.00175781-231.10751953-187.90839844-418.45429688-419.70322265-418.45429687z m0 176.53183594c-21.73007813 0-39.346875 17.56318359-39.346875 39.22998047v235.37988281c0 21.66767578 17.61679688 39.22998047 39.346875 39.22998047h170.50253906c21.73007813 0 39.346875-17.56318359 39.346875-39.22558594 0-21.67119141-17.61679688-39.22998047-39.346875-39.22998047H551.08496094v-196.15429687c0-21.66767578-17.61767578-39.22998047-39.34775391-39.22998047z" p-id="5471"></path></svg>