<?xml version="1.0" standalone="no"?><!DOCTYPE svg PUBLIC "-//W3C//DTD SVG 1.1//EN" "http://www.w3.org/Graphics/SVG/1.1/DTD/svg11.dtd"><svg t="1646055613269" class="icon" viewBox="0 0 1024 1024" version="1.1" xmlns="http://www.w3.org/2000/svg" p-id="8069" xmlns:xlink="http://www.w3.org/1999/xlink" width="128" height="128"><defs><style type="text/css"></style></defs><path d="M832.984615 866.461538c-110.276923-53.169231-189.046154-147.692308-228.430769-256-15.753846-39.384615-25.6-84.676923-29.538461-124.061538v-68.923077H787.692308c15.753846 0 27.569231-17.723077 15.753846-35.446154l-279.630769-334.769231c-9.846154-11.815385-31.507692-11.815385-39.384616 0l-271.753846 334.769231c-9.846154 11.815385 0 35.446154 15.753846 35.446154h214.646154v68.923077c-5.907692 41.353846-15.753846 86.646154-29.538461 124.061538-39.384615 108.307692-118.153846 202.830769-228.43077 256-15.753846 5.907692-21.661538 25.6-15.753846 39.384616l25.6 61.046154c7.876923 15.753846 25.6 21.661538 41.353846 11.815384 118.153846-57.107692 212.676923-147.692308 269.784616-256 59.076923 108.307692 151.630769 198.892308 271.753846 256 15.753846 7.876923 35.446154 5.907692 41.353846-11.815384l25.6-61.046154c11.815385-13.784615 3.938462-31.507692-11.815385-39.384616z" p-id="8070"></path></svg>