<?xml version="1.0" standalone="no"?><!DOCTYPE svg PUBLIC "-//W3C//DTD SVG 1.1//EN" "http://www.w3.org/Graphics/SVG/1.1/DTD/svg11.dtd"><svg t="1667830704200" class="icon" viewBox="0 0 1024 1024" version="1.1" xmlns="http://www.w3.org/2000/svg" p-id="51656" xmlns:xlink="http://www.w3.org/1999/xlink" width="128" height="128"><path d="M543.069623 45.439912 272.968975 303.066457 96.77816 303.066457c-53.036937 0-96.430236 43.393299-96.430236 96.430236l0 225.004567c0 53.036937 43.394323 96.430236 96.430236 96.430236l176.191838 0L543.069623 978.560088c13.029758 12.428054 34.603099 3.192715 34.603099-14.814404L577.672722 60.254316C577.672722 42.247196 556.100404 33.011858 543.069623 45.439912z" p-id="51657"></path><path d="M908.201647 249.424746c-17.455557-16.030092-44.63764-14.856359-60.653405 2.599198-16.043395 17.46886-14.869662 44.623313 2.599198 60.653405 55.692417 51.108005 87.640036 123.766838 87.640036 199.318558s-31.94762 148.196227-87.640036 199.318558c-17.46886 16.043395-18.629289 43.212174-2.599198 60.681034 8.468882 9.224082 20.027126 13.891382 31.640628 13.891382 10.370185 0 20.767999-3.745301 29.012777-11.292184 73.371054-67.3622 115.451452-163.065889 115.451452-262.59879C1023.652076 412.44868 981.572702 316.743968 908.201647 249.424746z" p-id="51658"></path><path d="M785.133727 349.167424c-15.442714-18.028609-42.527582-20.082384-60.541865-4.695952-18.014282 15.415085-20.111037 42.527582-4.695952 60.541865 25.462928 29.753651 39.494503 67.738777 39.494503 106.98257s-14.031575 77.256548-39.494503 106.995873c-15.415085 18.028609-13.31833 45.112454 4.695952 60.541865 8.092305 6.931876 18.028609 10.313903 27.90863 10.313903 12.102642 0 24.1357-5.086855 32.632211-15.009855 38.767955-45.308929 60.122309-103.139032 60.122309-162.841785C845.256036 452.29213 823.901683 394.476353 785.133727 349.167424z" p-id="51659"></path></svg>