<?xml version="1.0" standalone="no"?><!DOCTYPE svg PUBLIC "-//W3C//DTD SVG 1.1//EN" "http://www.w3.org/Graphics/SVG/1.1/DTD/svg11.dtd"><svg t="1667830508122" class="icon" viewBox="0 0 1024 1024" version="1.1" xmlns="http://www.w3.org/2000/svg" p-id="50197" xmlns:xlink="http://www.w3.org/1999/xlink" width="128" height="128"><path d="M510.844518 857.853902C320.61575 857.853902 165.781209 703.019361 165.781209 512.790593c0-190.228768 154.834541-345.063309 345.063309-345.063309 190.228768 0 345.063309 154.834541 345.063309 345.063309C855.907828 703.019361 701.194916 857.853902 510.844518 857.853902L510.844518 857.853902zM510.844518 200.567288C338.738568 200.567288 198.621214 340.684642 198.621214 512.790593c0 172.105951 140.117354 312.223304 312.223304 312.223304 172.105951 0 312.223304-140.117354 312.223304-312.223304C823.067823 340.684642 683.072099 200.567288 510.844518 200.567288L510.844518 200.567288z" p-id="50198"></path><path d="M321.345528 402.107614l39.651265 0c8.392446-1.702815 12.041335 3.284 10.825039 14.838817l0 207.135289c0 8.270816-2.432593 13.136002-7.176149 14.838817l-41.47571 0c-5.959853-3.284-9.608742-6.568001-10.825039-9.852001L312.344934 421.811617C312.344934 408.675615 315.264046 402.107614 321.345528 402.107614zM398.701984 319.642713l41.597339 0c6.93289-3.52726 10.46015 1.824445 10.46015 16.176743L450.759473 710.31714c0.973037 10.825039-1.459556 16.176743-7.419408 16.176743l-43.178525 0c-4.986816 1.216296-7.905927-0.608148-8.878964-5.351704L391.282575 339.346716C391.160945 326.210714 393.715168 319.642713 398.701984 319.642713zM520.818149 321.223898l22.501485 0c11.311557-1.216296 18.122817 1.824445 20.67704 9.365483-8.757335 12.527854-6.93289 17.514669 5.594964 15.082076l146.563725 0c8.757335 0 13.136002 4.378667 13.136002 13.136002l0 22.501485c2.554223 10.095261-1.824445 14.473928-13.136002 13.136002L556.577266 394.444946c-11.311557-2.554223-20.068892 2.554223-26.272004 15.082076-7.541038 17.514669-16.906521 27.60993-28.218078 30.042523l-22.501485 0c-11.311557-1.216296-16.906521-5.594964-16.906521-13.136002l0-16.906521c-1.216296-15.082076 0.608148-23.109633 5.594964-24.447559 11.311557-4.986816 17.514669-10.581779 18.730966-16.906521l16.906521-26.272004C508.898444 328.156788 514.615037 321.223898 520.818149 321.223898zM490.775627 537.359781l216.014253 0c13.74415 0 20.67704 9.365483 20.67704 28.218078l0 129.657204c0 21.285188-12.527854 32.596745-37.583561 33.813042l-189.74225 0c-18.730966 0-27.60993-4.986816-26.272004-15.082076L473.869106 556.090747C473.869106 544.77919 479.464069 538.576078 490.775627 537.359781zM581.024825 685.747951l0-105.209645L524.588668 580.538306l0 105.209645L581.024825 685.747951zM564.118304 426.433543l24.447559 0c15.082076 1.216296 20.67704 4.986816 16.906521 11.311557l0 30.042523L693.653878 467.787623c8.757335-1.216296 12.527854 2.554223 11.311557 11.311557l0 24.447559c1.216296 6.324742-7.541038 9.365483-26.272004 9.365483l-78.937641 0c-27.60993 0-44.516451-10.581779-50.719563-31.988597l0-37.583561C549.036228 433.366433 554.023043 427.64984 564.118304 426.433543zM674.922912 685.747951l0-105.209645-45.124599 0 0 105.209645L674.922912 685.747951z" p-id="50199"></path></svg>