<?xml version="1.0" standalone="no"?><!DOCTYPE svg PUBLIC "-//W3C//DTD SVG 1.1//EN" "http://www.w3.org/Graphics/SVG/1.1/DTD/svg11.dtd"><svg t="1646055644288" class="icon" viewBox="0 0 1024 1024" version="1.1" xmlns="http://www.w3.org/2000/svg" p-id="10488" xmlns:xlink="http://www.w3.org/1999/xlink" width="128" height="128"><defs><style type="text/css"></style></defs><path d="M1019.136 807.488A64.042667 64.042667 0 0 0 960 768h-64v-128c0-106.048-86.016-192-192-192h-64c-35.392 0-64-28.608-64-64V64a64 64 0 1 0-128 0v320a64 64 0 0 1-64 64h-64a192 192 0 0 0-192 192v128H64c-25.856 0-49.28 15.616-59.136 39.488a64.213333 64.213333 0 0 0 13.888 69.76l128 128C159.232 1017.728 175.616 1024 192 1024s32.768-6.272 45.248-18.752l128-128a64.106667 64.106667 0 0 0 13.888-69.76A64.042667 64.042667 0 0 0 320 768h-64v-128c0-35.328 28.672-64 64-64h64c49.408 0 93.952-19.2 128-49.792C545.984 556.8 590.656 576 640 576h64a64 64 0 0 1 64 64v128h-64c-25.856 0-49.28 15.616-59.136 39.488a64.213333 64.213333 0 0 0 13.888 69.76l128 128c12.48 12.48 28.864 18.752 45.248 18.752s32.768-6.272 45.248-18.752l128-128a64.106667 64.106667 0 0 0 13.888-69.76z" p-id="10489"></path></svg>